<?xml version="1.0" encoding="utf-8"?>
<!-- Generator: Adobe Illustrator 26.5.2, SVG Export Plug-In . SVG Version: 6.00 Build 0)  -->
<svg version="1.1" id="Capa_1" xmlns="http://www.w3.org/2000/svg" xmlns:xlink="http://www.w3.org/1999/xlink" x="0px" y="0px"
	 viewBox="0 0 283.46 283.46" style="enable-background:new 0 0 283.46 283.46;" xml:space="preserve">
<style type="text/css">
	.st0{fill:#363636;}
	.st1{fill:#FFCC00;}
</style>
<path class="st0" d="M26.42,0h230.61c14.59,0,26.42,11.83,26.42,26.42v230.61c0,14.59-11.83,26.42-26.42,26.42H26.42
	C11.83,283.46,0,271.63,0,257.04V26.42C0,11.83,11.83,0,26.42,0z"/>
<path class="st1" d="M199.78,102.58c-0.39-36.1-29.21-66.16-65.26-67.99c-18.45-0.94-35.4,5.41-48.27,16.4v0
	c-1.53,0.81-2.58,2.42-2.58,4.27v78.26c0,0.06,0.01,0.13,0.01,0.19c0,0.06-0.01,0.13-0.01,0.19c0,2.53,2.05,4.58,4.58,4.58h0.38h0
	h40.68c0.02,0,0.04,0,0.07,0c0.22,0,0.46,0,0.53,0c16.88,0,26.52-9.12,26.52-20.65c0-9.22-6.71-15.51-14.99-16.98v-0.21
	c8.39-2.93,12.58-8.81,12.58-15.93c0-8.91-7.23-16.67-21.28-16.67c-8.18,0-15.72,2.52-19.6,5.24l2.93,9.33
	c2.83-1.89,8.39-4.3,13.94-4.3c7.44,0,10.9,3.88,10.9,8.49c0,6.81-7.55,9.54-13.52,9.54h-4.08v9.43h4.28
	c7.86,0,15.41,3.46,15.41,11.53c0.1,5.24-4.28,11.77-13.72,12.01H93.34V56.39c11.14-8.96,25.58-13.99,41.21-12.97
	c30.3,1.99,54.48,27.1,55.4,57.45c0.79,26.06-15.2,48.47-37.97,57.28v0.01c-0.07,0-0.14-0.01-0.22-0.01H89.05
	c-0.09,0-0.18,0.01-0.27,0.01c-0.09,0-0.18-0.01-0.27-0.01c-2.67,0-4.83,2.16-4.83,4.83v21.49v6.05v19.42c0,1.27,0.5,2.43,1.3,3.29
	c0.22,0.4,0.49,0.77,0.83,1.11l0,0c0.42,0.67,0.99,1.23,1.65,1.65l31.55,31.55c0.97,0.97,2.26,1.44,3.54,1.41
	c1.28,0.03,2.56-0.44,3.54-1.41l33.21-33.21c1.22-1.22,1.64-2.92,1.29-4.48v-44.39C183.98,154.29,200.08,130.31,199.78,102.58z
	 M122.55,237.42l-20.57-20.57h41.15L122.55,237.42z M93.34,192.88h57.57v13.22H93.34V192.88z M150.91,182.13H93.34V168.9h57.57
	V182.13z"/>
</svg>
