<!-- Generator: Adobe Illustrator 24.1.3, SVG Export Plug-In  -->
<svg version="1.1" xmlns="http://www.w3.org/2000/svg" xmlns:xlink="http://www.w3.org/1999/xlink" x="0px" y="0px" width="70.8px"
     height="70.8px" viewBox="0 0 70.8 70.8" style="overflow:visible;enable-background:new 0 0 70.8 70.8;" xml:space="preserve">
<style type="text/css">
    .st0{fill:#4D008C;}
    .st1{fill:#BCBEC0;}
</style>
<defs>
</defs>
<g>
    <path class="st0" d="M46.6,27.7c1.9,0,3.5-1.6,3.5-3.5V14l11.5,1V21c-0.4-0.1-0.7-0.2-1.2-0.2c-1.9,0-3.5,1.6-3.5,3.5
        s1.6,3.5,3.5,3.5s3.5-1.6,3.5-3.5V8.2L47.7,6.8V21c-0.4-0.1-0.7-0.2-1.2-0.2c-1.9,0-3.5,1.6-3.5,3.5S44.7,27.7,46.6,27.7z
         M60.4,26.1c-1,0-1.8-0.8-1.8-1.8c0-1,0.8-1.8,1.8-1.8s1.8,0.8,1.8,1.8C62.3,25.3,61.4,26.1,60.4,26.1z M61.6,10.3v2.3l-11.5-1V9.3
        L61.6,10.3z M46.6,22.4c1,0,1.8,0.8,1.8,1.8c0,1-0.8,1.8-1.8,1.8c-1,0-1.8-0.8-1.8-1.8C44.8,23.3,45.6,22.4,46.6,22.4z"/>
    <path class="st1" d="M63.9,31.2c4.2-3.2,6.9-8.2,6.9-13.8C70.8,7.8,63.1,0,53.5,0S36.2,7.8,36.2,17.3c0,0.4,0,0.8,0.1,1.2H7.3
        c-3.2,0-5.8,2.6-5.8,5.8v36.8H0v4.8c0,3.2,1.8,4.9,5,4.9h55.4c3.2,0,4.9-1.7,4.9-4.9v-4.8h-1.4V31.2z M53.5,1.7
        c8.6,0,15.6,7,15.6,15.6s-7,15.6-15.6,15.6s-15.6-7-15.6-15.6S44.9,1.7,53.5,1.7z M53.5,34.6c1.2,0,3.3-0.4,4.4-0.6l-0.1,22.1H7.6
        V24.6h30C40.6,30.1,46.9,34.6,53.5,34.6z M2.7,24.3c0-1.9,2.5-4.4,4.4-4.4h29.2c0.2,0.8,0.6,2.5,0.9,3.2H8.5c-1.3,0-2.3,1-2.3,2.3
        v30c0,1.3,1,2.3,2.3,2.3H57c1.3,0,2.3-1,2.3-2.3V33.6c0.8-0.3,1.6-0.6,2.3-1v28.4H2.7V24.3z M39.4,62.4c-0.5,1.3-1.7,2.3-3.3,2.3
        h-6.9c-1.5,0-2.8-1-3.3-2.3H39.4z M63.9,65.8c0,1.9-1.6,3.5-3.5,3.5H5c-1.9,0-3.5-1.6-3.5-3.5v-3.5h22.9c0.5,2.6,2,3.7,4.8,3.7h6.9
        c2.8,0,4.4-1.1,4.9-3.7h22.8V65.8z"/>
    <path class="st0" d="M23.5,53.1c7,0,12.7-5.7,12.7-12.7s-5.7-12.7-12.7-12.7s-12.7,5.7-12.7,12.7S16.5,53.1,23.5,53.1z M23.5,29.5
        c6,0,10.9,4.9,10.9,10.9s-4.9,10.9-10.9,10.9s-10.9-4.9-10.9-10.9S17.4,29.5,23.5,29.5z"/>
    <path class="st0" d="M17.7,33.9v13l13-6.5L17.7,33.9z M19.2,36.9l7.8,3.5l-7.8,3.5V36.9z"/>
    <polygon class="st1" points="39.6,52.6 42,52.6 42,50.8 54.7,50.8 54.7,49.1 42,49.1 42,46.8 39.6,46.8 39.6,49.1 37.3,49.1
        37.3,50.8 39.6,50.8     "/>
    <polygon class="st1" points="47.7,46.6 50,46.6 50,44.2 54.7,44.2 54.7,42.2 50,42.2 50,39.9 47.7,39.9 47.7,42.2 37.3,42.2
        37.3,44.2 47.7,44.2     "/>
</g>
</svg>
