<!-- Generator: Adobe Illustrator 24.1.3, SVG Export Plug-In  -->
<svg version="1.1" xmlns="http://www.w3.org/2000/svg" xmlns:xlink="http://www.w3.org/1999/xlink" x="0px" y="0px" width="66px"
     height="80.3px" viewBox="0 0 66 80.3" style="overflow:visible;enable-background:new 0 0 66 80.3;" xml:space="preserve">
<style type="text/css">
    .st0{fill:#4D008C;}
    .st1{fill:#BCBEC0;}
</style>
<defs>
</defs>
<g>
    <g>
        <rect x="8.9" y="7.6" transform="matrix(0.7071 -0.7071 0.7071 0.7071 -5.1845 10.7272)" class="st0" width="2.9" height="8.1"/>
        <rect y="29.3" class="st0" width="8.6" height="2.9"/>
        <rect x="57.4" y="29.3" class="st0" width="8.6" height="2.9"/>
        <rect x="32.6" class="st0" width="2.9" height="8.6"/>
        <rect x="50.4" y="10.2" transform="matrix(0.7071 -0.7071 0.7071 0.7071 7.7417 41.9329)" class="st0" width="8.1" height="2.9"/>
    </g>
    <g>
        <g>
            <path class="st1" d="M60.5,66.6c-1.2-5.7-5.7-10.1-11.5-11.2l-4.5-0.8l-0.3-0.1l0,0l-3.4-0.6v-1.7c8-3.2,13.3-11,13.3-19.6
                c0-11.6-9.5-21.1-21.1-21.1S12,20.9,12,32.5c0,8.7,5.3,16.4,13.3,19.6v1.7L22,54.5l0,0l-0.3,0.1l-4.5,0.8
                C11.5,56.4,7,60.8,5.7,66.6L2.9,80.3h60.5L60.5,66.6z M58.3,67l2.3,11.1H53l-1-6.8l-2.2,0.3l0.9,6.5H38.5l-1.9-9.7l2.2-2.9l4,2
                L45.8,57l2.8,0.5C53.5,58.4,57.3,62.2,58.3,67z M28.7,30.3h-2.2c-1.2,0-2.2-1-2.2-2.2s1-2.2,2.2-2.2c1.2,0,2.2,1,2.2,2.2V30.3z
                 M35.3,37h-4.4v-4.4h4.4V37z M29.7,39.2h6.8l0.9,11.1h-8.7L29.7,39.2z M27.6,52.5h11.1v1.9l-5,6h-1.2l-5-6V52.5z M33.1,62.7
                l3.6,1.8L34.8,67h-3.3l-1.9-2.5L33.1,62.7z M31.8,69.2h2.6l1.8,8.9H30L31.8,69.2z M41.3,64.3l-5.7-2.8l4.6-5.5l3.4,0.6L41.3,64.3
                z M14.2,32.5c0-10.4,8.5-18.9,18.9-18.9S52,22.1,52,32.5c0,7.9-4.9,14.9-12.3,17.7L38.6,37h-1v-4.4h2.2c2.5,0,4.4-2,4.4-4.4
                s-2-4.4-4.4-4.4c-2.5,0-4.4,2-4.4,4.4v2.2h-4.4v-2.2c0-2.5-2-4.4-4.4-4.4s-4.4,2-4.4,4.4s2,4.4,4.4,4.4h2.2V37h-1l-1.1,13.2
                C19.2,47.5,14.2,40.4,14.2,32.5z M37.6,30.3v-2.2c0-1.2,1-2.2,2.2-2.2c1.2,0,2.2,1,2.2,2.2s-1,2.2-2.2,2.2H37.6z M26,56l4.6,5.5
                l-5.7,2.8l-2.3-7.7L26,56z M7.9,67c1-4.9,4.8-8.6,9.7-9.5l2.8-0.5l3.1,10.4l4-2l2.2,2.9l-1.9,9.7H15.5l0.9-6.5l-2.2-0.3l-1,6.8
                H5.6L7.9,67z"/>
            <path class="st0" d="M33.1,18.1v-2.2c-7.3,0-13.9,4.9-16,11.9l2.1,0.6C21.1,22.3,26.8,18.1,33.1,18.1z"/>
            <path class="st0" d="M16.4,32.5h2.2c0-0.7,0-1.4,0.1-2.1l-2.2-0.3C16.5,30.9,16.4,31.7,16.4,32.5z"/>
        </g>
    </g>
</g>
</svg>
