<!-- Generator: Adobe Illustrator 24.1.3, SVG Export Plug-In  -->
<svg version="1.1" xmlns="http://www.w3.org/2000/svg" xmlns:xlink="http://www.w3.org/1999/xlink" x="0px" y="0px" width="73.4px"
     height="71.6px" viewBox="0 0 73.4 71.6" style="overflow:visible;enable-background:new 0 0 73.4 71.6;" xml:space="preserve">
<style type="text/css">
    .st0{fill:#4D008C;}
    .st1{fill:#BCBEC0;}
</style>
<defs>
</defs>
<g>
    <rect x="14.3" y="4.8" class="st0" width="2.4" height="2.4"/>
    <rect x="19.1" y="4.8" class="st0" width="2.4" height="2.4"/>
    <rect x="23.9" y="4.8" class="st0" width="2.4" height="2.4"/>
    <path class="st0" d="M1.2,71.6h37c0.7,0,1.2-0.5,1.2-1.2c0-0.3-0.1-0.6-0.3-0.8l-37-37c-0.5-0.5-1.2-0.5-1.7,0
        C0.1,32.8,0,33.1,0,33.4v37C0,71.1,0.5,71.6,1.2,71.6z M2.2,36.1l33.3,33.3H2.2V36.1z"/>
    <path class="st0" d="M21.1,62.4L9.2,50.5C8.7,50,8,50,7.5,50.5c-0.2,0.2-0.3,0.5-0.3,0.8v11.9c0,0.7,0.5,1.2,1.2,1.2h11.9
        c0.7,0,1.2-0.5,1.2-1.2C21.5,63,21.4,62.7,21.1,62.4z M8.9,62.7V52.6l10.2,10.2H8.9z"/>
    <path class="st1" d="M70.3,10.2c1.8-1.8,1.8-4.7,0-6.5c-1.8-1.8-4.7-1.8-6.5,0L62,5.5C61.8,2.4,59.2,0,56.1,0H15.5
        c-3.3,0-6,2.7-6,6v31h2.4V6c0-2,1.6-3.6,3.6-3.6h40.6c2,0,3.6,1.6,3.6,3.6v1.9L48.5,19.1h-8.8C37,12.4,29.4,9,22.7,11.7
        s-10.1,10.3-7.5,17c1.8,4.6,6.1,7.8,11,8.3v4.8c0,0.7,0.5,1.2,1.2,1.2h26.3c0.7,0,1.2-0.5,1.2-1.2V25.6l4.8-4.8v24.6H32.2
        c-0.7,0-1.2,0.5-1.2,1.2v9.6c0,0.7,0.5,1.2,1.2,1.2h27.5v1.2c0,2-1.6,3.6-3.6,3.6H37v2.4h19.1c3.3,0,6-2.7,6-6v-1.2h8.4
        c0.7,0,1.2-0.5,1.2-1.2v-9.6c0-0.7-0.5-1.2-1.2-1.2h-8.4v-27L70.3,10.2z M64.8,4.7C66,3.4,68,3.4,69.3,4.6c1.3,1.2,1.3,3.3,0.1,4.5
        c0,0-0.1,0.1-0.1,0.1l-0.8,0.8l-4.8-4.2L64.8,4.7z M38.2,23.9c0,5.5-4.1,10.1-9.6,10.7V21.5h9.3C38.1,22.3,38.2,23.1,38.2,23.9z
         M26.3,20.3v14.3c-5.9-0.6-10.2-6-9.5-11.9s6-10.2,11.9-9.5c3.6,0.4,6.8,2.6,8.5,5.9h-9.6C26.8,19.1,26.3,19.6,26.3,20.3z
         M52.5,40.6H28.7V37c7.2-0.6,12.5-7,11.9-14.2c0-0.4-0.1-0.9-0.2-1.3h5.7l-2.7,2.7c-0.2,0.2-0.3,0.4-0.3,0.6l-1.2,6
        c-0.1,0.6,0.3,1.3,0.9,1.4c0.1,0,0.2,0,0.2,0c0.1,0,0.2,0,0.2,0l6-1.2c0.2,0,0.4-0.2,0.6-0.3l2.7-2.7V40.6z M43.8,25.8l4.5,4.2
        l-5.4,1.3L43.8,25.8z M64.5,47.8v2.4h2.4v-2.4h2.4v7.2H33.4v-7.2h2.4v2.4h2.4v-2.4h2.4v2.4H43v-2.4h2.4v2.4h2.4v-2.4h2.4v2.4h2.4
        v-2.4h2.4v2.4h2.4v-2.4h2.4v2.4h2.4v-2.4H64.5z M49.2,30.1l-5.5-4.8L63,6l5.3,4.5L49.2,30.1z"/>
    <path class="st0" d="M62.1,18.4l8.2-8.2c1.8-1.8,1.8-4.7,0-6.5c-1.8-1.8-4.7-1.8-6.5,0L62,5.5l-2.3,2.3L48.5,19.1l-2.4,2.4
        l-2.7,2.7c-0.2,0.2-0.3,0.4-0.3,0.6l-1.2,6c-0.1,0.6,0.3,1.3,0.9,1.4c0.1,0,0.2,0,0.2,0c0.1,0,0.2,0,0.2,0l6-1.2
        c0.2,0,0.4-0.2,0.6-0.3l2.7-2.7L62.1,18.4z M43.5,30.8l0.6-4.4l3.7,3.3L43.5,30.8z M64.9,5.1c1-1.2,2.8-1.3,4-0.3s1.3,2.8,0.3,4
        c0,0-0.1,0.1-0.1,0.1l-0.8,0.9L64,5.9L64.9,5.1z M63.3,6.4l4.5,4.1l-18.7,19l-4.8-4.1L63.3,6.4z"/>
    <path class="st0" d="M65.6,41.9C65.5,41.9,65.5,41.9,65.6,41.9c-0.3,0-0.4-0.2-0.5-0.4L61.9,31c-0.1-0.2,0-0.4,0.1-0.5
        c0.1-0.1,0.3-0.2,0.5-0.1L73,33.5c0.2,0.1,0.3,0.2,0.4,0.4c0,0.2-0.1,0.4-0.2,0.5l-2.6,1.7l2.7,2.7c0.2,0.2,0.2,0.5,0,0.7l-2.1,2.1
        c-0.2,0.2-0.5,0.2-0.7,0L67.7,39L66,41.6C65.9,41.8,65.7,41.9,65.6,41.9z M67.6,37.8c0.1,0,0.3,0.1,0.4,0.2l3,3l1.4-1.4l-3-3
        c-0.1-0.1-0.2-0.3-0.2-0.5c0-0.2,0.1-0.3,0.2-0.4l2.4-1.6l-9-2.7l2.7,9l1.6-2.4C67.3,37.9,67.4,37.8,67.6,37.8
        C67.6,37.8,67.6,37.8,67.6,37.8z M60.7,29.2c0.2-0.2,0.2-0.5,0-0.7l-1-1c-0.2-0.2-0.5-0.2-0.7,0c-0.2,0.2-0.2,0.5,0,0.7l1,1
        c0.1,0.1,0.2,0.2,0.4,0.2C60.5,29.3,60.6,29.3,60.7,29.2z M60.3,30.9c0-0.3-0.2-0.5-0.5-0.5h-1.6c-0.3,0-0.5,0.2-0.5,0.5
        c0,0.3,0.2,0.5,0.5,0.5h1.6C60.1,31.4,60.3,31.2,60.3,30.9z M59.7,34.4l1-1c0.2-0.2,0.2-0.5,0-0.7c-0.2-0.2-0.5-0.2-0.7,0l-1,1
        c-0.2,0.2-0.2,0.5,0,0.7c0.1,0.1,0.2,0.2,0.4,0.2C59.4,34.5,59.6,34.5,59.7,34.4z M64.9,29.2l1-1c0.2-0.2,0.2-0.5,0-0.7
        s-0.5-0.2-0.7,0l-1,1c-0.2,0.2-0.2,0.5,0,0.7c0.1,0.1,0.2,0.2,0.4,0.2S64.8,29.3,64.9,29.2z M62.9,28.3v-1.6c0-0.3-0.2-0.5-0.5-0.5
        s-0.5,0.2-0.5,0.5v1.6c0,0.3,0.2,0.5,0.5,0.5S62.9,28.6,62.9,28.3z"/>
</g>
</svg>
