<!-- Generator: Adobe Illustrator 24.1.3, SVG Export Plug-In  -->
<svg version="1.1" xmlns="http://www.w3.org/2000/svg" xmlns:xlink="http://www.w3.org/1999/xlink" x="0px" y="0px" width="71.6px"
     height="71.6px" viewBox="0 0 71.6 71.6" style="overflow:visible;enable-background:new 0 0 71.6 71.6;" xml:space="preserve">
<style type="text/css">
    .st0{fill:#4D008C;}
    .st1{fill:#BCBEC0;}
</style>
<defs>
</defs>
<g>
    <path class="st0" d="M71.1,1.1c0-0.1,0-0.1-0.1-0.2c0,0-0.1-0.1-0.1-0.1c0,0-0.1-0.1-0.1-0.1c0,0,0,0-0.1-0.1c0,0,0,0-0.1,0
        c-0.1,0-0.1,0-0.2-0.1c-0.1,0-0.1,0-0.2,0c0,0,0,0-0.1,0H56.9c-0.5,0-0.9,0.4-0.9,0.9s0.4,0.9,0.9,0.9h11.6
        C64.1,6.9,46.7,22.2,1.3,22.2c-0.5,0-0.9,0.4-0.9,0.9c0,0.5,0.4,0.9,0.9,0.9c45.3,0,63.1-14.7,68.1-20.1v11c0,0.5,0.4,0.9,0.9,0.9
        c0.5,0,0.9-0.4,0.9-0.9V1.3c0,0,0-0.1,0-0.1C71.2,1.2,71.2,1.1,71.1,1.1z"/>
</g>
<g>
    <path class="st1" d="M70.3,69.4h-0.8v-44c0-0.5-0.4-0.9-0.9-0.9H57.3c-0.5,0-0.9,0.4-0.9,0.9v44h-5V42.3c0-0.5-0.4-0.9-0.9-0.9
        H39.2c-0.5,0-0.9,0.4-0.9,0.9v27.2h-5V34.6c0-0.5-0.4-0.9-0.9-0.9H21.1c-0.5,0-0.9,0.4-0.9,0.9v34.9h-5V39.4c0-0.5-0.4-0.9-0.9-0.9
        H3c-0.5,0-0.9,0.4-0.9,0.9v30.1H1.3c-0.5,0-0.9,0.4-0.9,0.9c0,0.5,0.4,0.9,0.9,0.9H3h11.3h6.8h11.3h6.8h11.3h6.8h11.3h1.7
        c0.5,0,0.9-0.4,0.9-0.9C71.2,69.8,70.8,69.4,70.3,69.4z M3.9,69.4V40.3h9.5v29.2H3.9z M22,69.4v-34h9.5v34H22z M40.1,69.4V43.1h9.5
        v26.3H40.1z M58.2,69.4V26.3h9.5v43.1H58.2z"/>
    <path class="st1" d="M70.3,71.6h-69C0.6,71.6,0,71,0,70.3C0,69.6,0.6,69,1.3,69h0.4V39.4C1.7,38.6,2.3,38,3,38h11.3
        c0.7,0,1.3,0.6,1.3,1.3V69h4.2V34.6c0-0.7,0.6-1.3,1.3-1.3h11.3c0.7,0,1.3,0.6,1.3,1.3V69h4.2V42.3c0-0.7,0.6-1.3,1.3-1.3h11.3
        c0.7,0,1.3,0.6,1.3,1.3V69H56V25.4c0-0.7,0.6-1.3,1.3-1.3h11.3c0.7,0,1.3,0.6,1.3,1.3V69h0.4c0.7,0,1.3,0.6,1.3,1.3
        C71.6,71,71,71.6,70.3,71.6z M1.3,69.9c-0.2,0-0.4,0.2-0.4,0.4c0,0.2,0.2,0.4,0.4,0.4h69c0.2,0,0.4-0.2,0.4-0.4
        c0-0.2-0.2-0.4-0.4-0.4h-1.3V25.4c0-0.2-0.2-0.4-0.4-0.4H57.3c-0.2,0-0.4,0.2-0.4,0.4v44.5H51V42.3c0-0.2-0.2-0.4-0.4-0.4H39.2
        c-0.2,0-0.4,0.2-0.4,0.4v27.6h-5.9V34.6c0-0.2-0.2-0.4-0.4-0.4H21.1c-0.2,0-0.4,0.2-0.4,0.4v35.3h-5.9V39.4c0-0.2-0.2-0.4-0.4-0.4
        H3c-0.2,0-0.4,0.2-0.4,0.4v30.5H1.3z M68.2,69.9H57.8v-44h10.4V69.9z M58.7,69h8.6V26.7h-8.6V69z M50.1,69.9H39.7V42.7h10.4V69.9z
         M40.6,69h8.6V43.6h-8.6V69z M32,69.9H21.6V35H32V69.9z M22.5,69h8.6V35.9h-8.6V69z M13.9,69.9H3.5V39.8h10.4V69.9z M4.4,69H13
        V40.7H4.4V69z"/>
</g>
<g>
    <path class="st0" d="M11.8,17c0.5,0,0.9-0.4,0.9-0.9V13h3.1c0.5,0,0.9-0.4,0.9-0.9c0-0.5-0.4-0.9-0.9-0.9h-3.1V8.1
        c0-0.5-0.4-0.9-0.9-0.9c-0.5,0-0.9,0.4-0.9,0.9v3.1H7.8c-0.5,0-0.9,0.4-0.9,0.9c0,0.5,0.4,0.9,0.9,0.9h3.1v3.1
        C10.9,16.6,11.3,17,11.8,17z"/>
    <path class="st0" d="M11.8,17.4c-0.7,0-1.3-0.6-1.3-1.3v-2.7H7.8c-0.7,0-1.3-0.6-1.3-1.3c0-0.7,0.6-1.3,1.3-1.3h2.7V8.1
        c0-0.7,0.6-1.3,1.3-1.3c0.7,0,1.3,0.6,1.3,1.3v2.7h2.7c0.7,0,1.3,0.6,1.3,1.3c0,0.7-0.6,1.3-1.3,1.3h-2.7v2.7
        C13.2,16.8,12.6,17.4,11.8,17.4z M7.8,11.6c-0.2,0-0.4,0.2-0.4,0.4s0.2,0.4,0.4,0.4h3.6v3.6c0,0.2,0.2,0.4,0.4,0.4
        c0.2,0,0.4-0.2,0.4-0.4v-3.6h3.6c0.2,0,0.4-0.2,0.4-0.4s-0.2-0.4-0.4-0.4h-3.6V8.1c0-0.2-0.2-0.4-0.4-0.4c-0.2,0-0.4,0.2-0.4,0.4
        v3.6H7.8z"/>
</g>
<g>
    <path class="st0" d="M44.9,24.5c-0.5,0-0.9,0.4-0.9,0.9v3.1h-3.1c-0.5,0-0.9,0.4-0.9,0.9s0.4,0.9,0.9,0.9H44v3.1
        c0,0.5,0.4,0.9,0.9,0.9c0.5,0,0.9-0.4,0.9-0.9v-3.1h3.1c0.5,0,0.9-0.4,0.9-0.9s-0.4-0.9-0.9-0.9h-3.1v-3.1
        C45.8,24.9,45.4,24.5,44.9,24.5z"/>
    <path class="st0" d="M44.9,34.8c-0.7,0-1.3-0.6-1.3-1.3v-2.7h-2.7c-0.7,0-1.3-0.6-1.3-1.3s0.6-1.3,1.3-1.3h2.7v-2.7
        c0-0.7,0.6-1.3,1.3-1.3c0.7,0,1.3,0.6,1.3,1.3v2.7h2.7c0.7,0,1.3,0.6,1.3,1.3s-0.6,1.3-1.3,1.3h-2.7v2.7
        C46.2,34.2,45.6,34.8,44.9,34.8z M40.8,29c-0.2,0-0.4,0.2-0.4,0.4s0.2,0.4,0.4,0.4h3.6v3.6c0,0.2,0.2,0.4,0.4,0.4
        c0.2,0,0.4-0.2,0.4-0.4v-3.6h3.6c0.2,0,0.4-0.2,0.4-0.4S49.1,29,48.9,29h-3.6v-3.6c0-0.2-0.2-0.4-0.4-0.4c-0.2,0-0.4,0.2-0.4,0.4
        V29H40.8z"/>
</g>
<g>
    <path class="st0" d="M33.8,10.3c0.5,0,0.9-0.4,0.9-0.9V6.2h3.1c0.5,0,0.9-0.4,0.9-0.9s-0.4-0.9-0.9-0.9h-3.1V1.3
        c0-0.5-0.4-0.9-0.9-0.9s-0.9,0.4-0.9,0.9v3.1h-3.1c-0.5,0-0.9,0.4-0.9,0.9s0.4,0.9,0.9,0.9h3.1v3.1C32.9,9.9,33.3,10.3,33.8,10.3z"
        />
    <path class="st0" d="M33.8,10.7c-0.7,0-1.3-0.6-1.3-1.3V6.7h-2.7c-0.7,0-1.3-0.6-1.3-1.3S29,4,29.8,4h2.7V1.3
        c0-0.7,0.6-1.3,1.3-1.3s1.3,0.6,1.3,1.3V4h2.7c0.7,0,1.3,0.6,1.3,1.3s-0.6,1.3-1.3,1.3h-2.7v2.7C35.1,10.1,34.5,10.7,33.8,10.7z
         M29.8,4.9c-0.2,0-0.4,0.2-0.4,0.4s0.2,0.4,0.4,0.4h3.6v3.6c0,0.2,0.2,0.4,0.4,0.4c0.2,0,0.4-0.2,0.4-0.4V5.8h3.6
        c0.2,0,0.4-0.2,0.4-0.4s-0.2-0.4-0.4-0.4h-3.6V1.3c0-0.2-0.2-0.4-0.4-0.4c-0.2,0-0.4,0.2-0.4,0.4v3.6H29.8z"/>
</g>
</svg>

